<?xml version="1.0" standalone="no"?>
<!DOCTYPE svg PUBLIC "-//W3C//DTD SVG 20010904//EN"
 "http://www.w3.org/TR/2001/REC-SVG-20010904/DTD/svg10.dtd">
<svg version="1.0" xmlns="http://www.w3.org/2000/svg"
 width="91.000000pt" height="91.000000pt" viewBox="0 0 91.000000 91.000000"
 preserveAspectRatio="xMidYMid meet">
<metadata>
Created by potrace 1.14, written by Peter Selinger 2001-2017
</metadata>
<g transform="translate(0.000000,91.000000) scale(0.100000,-0.100000)"
fill="#000000" stroke="none">
<path d="M23 819 c-14 -4 -15 -46 -16 -360 l0 -354 329 -2 c181 -2 335 -1 342
2 8 3 10 10 5 17 -10 17 -13 38 -5 38 4 0 7 14 7 30 0 17 -3 30 -6 30 -3 0 -4
12 -2 28 2 15 4 34 3 42 0 8 0 24 0 35 1 25 1 34 -2 64 -3 24 -5 25 -93 26
-107 2 -118 -1 -106 -24 6 -9 6 -23 2 -30 -5 -7 -6 -21 -4 -31 5 -17 -5 -18
-129 -17 l-133 2 -2 148 c-1 131 0 147 15 148 9 1 109 1 222 1 186 0 259 9
234 27 -11 8 -12 71 -1 71 4 0 4 8 -1 18 -4 9 -7 34 -5 55 2 36 2 37 -35 38
-180 4 -606 3 -619 -2z"/>
<path d="M707 305 c-4 -9 -2 -180 1 -198 1 -4 46 -7 100 -6 l99 1 -1 98 c-1
54 -4 101 -7 105 -11 10 -189 11 -192 0z"/>
</g>
</svg>
